<mxfile host="app.diagrams.net" modified="2020-11-30T09:58:33.022Z" agent="5.0 (Windows NT 10.0; Win64; x64) AppleWebKit/537.36 (KHTML, like Gecko) Chrome/86.0.4240.75 Safari/537.36" etag="-R_S7D4AbCcZ93XJL7wn" version="13.10.4" type="github" pages="4">
  <diagram id="C5RBs43oDa-KdzZeNtuy" name="Basket">
    <mxGraphModel dx="720" dy="477" grid="1" gridSize="10" guides="1" tooltips="1" connect="1" arrows="1" fold="1" page="1" pageScale="1" pageWidth="827" pageHeight="1169" math="0" shadow="0">
      <root>
        <mxCell id="WIyWlLk6GJQsqaUBKTNV-0" />
        <mxCell id="WIyWlLk6GJQsqaUBKTNV-1" parent="WIyWlLk6GJQsqaUBKTNV-0" />
        <mxCell id="WIyWlLk6GJQsqaUBKTNV-2" value="" style="rounded=0;html=1;jettySize=auto;orthogonalLoop=1;fontSize=11;endArrow=block;endFill=0;endSize=8;strokeWidth=1;shadow=0;labelBackgroundColor=none;edgeStyle=orthogonalEdgeStyle;" parent="WIyWlLk6GJQsqaUBKTNV-1" source="WIyWlLk6GJQsqaUBKTNV-3" target="WIyWlLk6GJQsqaUBKTNV-6" edge="1">
          <mxGeometry relative="1" as="geometry" />
        </mxCell>
        <mxCell id="WIyWlLk6GJQsqaUBKTNV-3" value="Basket-View" style="rounded=1;whiteSpace=wrap;html=1;fontSize=12;glass=0;strokeWidth=1;shadow=0;" parent="WIyWlLk6GJQsqaUBKTNV-1" vertex="1">
          <mxGeometry x="160" y="80" width="120" height="40" as="geometry" />
        </mxCell>
        <mxCell id="WIyWlLk6GJQsqaUBKTNV-4" value="no" style="rounded=0;html=1;jettySize=auto;orthogonalLoop=1;fontSize=11;endArrow=block;endFill=0;endSize=8;strokeWidth=1;shadow=0;labelBackgroundColor=none;edgeStyle=orthogonalEdgeStyle;entryX=0;entryY=0.5;entryDx=0;entryDy=0;" parent="WIyWlLk6GJQsqaUBKTNV-1" source="WIyWlLk6GJQsqaUBKTNV-6" target="4H4yKaGlozyHZbnX35rT-5" edge="1">
          <mxGeometry y="20" relative="1" as="geometry">
            <mxPoint as="offset" />
            <mxPoint x="360" y="210" as="targetPoint" />
          </mxGeometry>
        </mxCell>
        <mxCell id="4H4yKaGlozyHZbnX35rT-3" value="yes" style="edgeStyle=orthogonalEdgeStyle;rounded=0;jumpStyle=none;orthogonalLoop=1;jettySize=auto;html=1;endArrow=block;endFill=0;endSize=8;" parent="WIyWlLk6GJQsqaUBKTNV-1" source="WIyWlLk6GJQsqaUBKTNV-6" target="4H4yKaGlozyHZbnX35rT-2" edge="1">
          <mxGeometry relative="1" as="geometry" />
        </mxCell>
        <mxCell id="WIyWlLk6GJQsqaUBKTNV-6" value="Are Products in the basket?" style="rhombus;whiteSpace=wrap;html=1;shadow=0;fontFamily=Helvetica;fontSize=12;align=center;strokeWidth=1;spacing=6;spacingTop=-4;" parent="WIyWlLk6GJQsqaUBKTNV-1" vertex="1">
          <mxGeometry x="170" y="170" width="100" height="80" as="geometry" />
        </mxCell>
        <mxCell id="4H4yKaGlozyHZbnX35rT-6" style="edgeStyle=orthogonalEdgeStyle;rounded=0;jumpStyle=none;orthogonalLoop=1;jettySize=auto;html=1;exitX=0;exitY=0.5;exitDx=0;exitDy=0;endArrow=block;endFill=0;endSize=8;entryX=0;entryY=0.5;entryDx=0;entryDy=0;" parent="WIyWlLk6GJQsqaUBKTNV-1" source="WIyWlLk6GJQsqaUBKTNV-10" target="4H4yKaGlozyHZbnX35rT-2" edge="1">
          <mxGeometry relative="1" as="geometry">
            <mxPoint x="60" y="460" as="targetPoint" />
          </mxGeometry>
        </mxCell>
        <mxCell id="4H4yKaGlozyHZbnX35rT-7" value="no" style="edgeLabel;html=1;align=center;verticalAlign=middle;resizable=0;points=[];" parent="4H4yKaGlozyHZbnX35rT-6" vertex="1" connectable="0">
          <mxGeometry x="-0.2807" y="-1" relative="1" as="geometry">
            <mxPoint as="offset" />
          </mxGeometry>
        </mxCell>
        <mxCell id="WIyWlLk6GJQsqaUBKTNV-10" value="Is delivery Method selected?" style="rhombus;whiteSpace=wrap;html=1;shadow=0;fontFamily=Helvetica;fontSize=12;align=center;strokeWidth=1;spacing=6;spacingTop=-4;" parent="WIyWlLk6GJQsqaUBKTNV-1" vertex="1">
          <mxGeometry x="170" y="380" width="100" height="80" as="geometry" />
        </mxCell>
        <mxCell id="WIyWlLk6GJQsqaUBKTNV-11" value="Go to customer data page" style="rounded=1;whiteSpace=wrap;html=1;fontSize=12;glass=0;strokeWidth=1;shadow=0;" parent="WIyWlLk6GJQsqaUBKTNV-1" vertex="1">
          <mxGeometry x="160" y="510" width="120" height="40" as="geometry" />
        </mxCell>
        <mxCell id="4H4yKaGlozyHZbnX35rT-0" value="" style="endArrow=block;html=1;exitX=0.5;exitY=1;exitDx=0;exitDy=0;entryX=0.5;entryY=0;entryDx=0;entryDy=0;jumpStyle=none;rounded=0;endFill=0;endSize=8;" parent="WIyWlLk6GJQsqaUBKTNV-1" source="WIyWlLk6GJQsqaUBKTNV-10" target="WIyWlLk6GJQsqaUBKTNV-11" edge="1">
          <mxGeometry relative="1" as="geometry">
            <mxPoint x="460" y="400" as="sourcePoint" />
            <mxPoint x="560" y="400" as="targetPoint" />
          </mxGeometry>
        </mxCell>
        <mxCell id="4H4yKaGlozyHZbnX35rT-1" value="yes" style="edgeLabel;resizable=0;html=1;align=center;verticalAlign=middle;" parent="4H4yKaGlozyHZbnX35rT-0" connectable="0" vertex="1">
          <mxGeometry relative="1" as="geometry" />
        </mxCell>
        <mxCell id="4H4yKaGlozyHZbnX35rT-4" value="" style="edgeStyle=orthogonalEdgeStyle;rounded=0;jumpStyle=none;orthogonalLoop=1;jettySize=auto;html=1;endArrow=block;endFill=0;endSize=8;" parent="WIyWlLk6GJQsqaUBKTNV-1" source="4H4yKaGlozyHZbnX35rT-2" target="WIyWlLk6GJQsqaUBKTNV-10" edge="1">
          <mxGeometry relative="1" as="geometry" />
        </mxCell>
        <mxCell id="4H4yKaGlozyHZbnX35rT-2" value="select Delivery Method" style="whiteSpace=wrap;html=1;shadow=0;strokeWidth=1;spacing=6;spacingTop=-4;" parent="WIyWlLk6GJQsqaUBKTNV-1" vertex="1">
          <mxGeometry x="160" y="290" width="120" height="60" as="geometry" />
        </mxCell>
        <mxCell id="4H4yKaGlozyHZbnX35rT-5" value="Hint to first add Products" style="rounded=0;whiteSpace=wrap;html=1;" parent="WIyWlLk6GJQsqaUBKTNV-1" vertex="1">
          <mxGeometry x="335" y="190" width="110" height="40" as="geometry" />
        </mxCell>
      </root>
    </mxGraphModel>
  </diagram>
  <diagram id="trSnWFVF8pbwc7AmH88S" name="Customer Data">
    <mxGraphModel dx="720" dy="477" grid="1" gridSize="10" guides="1" tooltips="1" connect="1" arrows="1" fold="1" page="1" pageScale="1" pageWidth="827" pageHeight="1169" math="0" shadow="0">
      <root>
        <mxCell id="EQ7L1SsvrP8WP7ACM2IL-0" />
        <mxCell id="EQ7L1SsvrP8WP7ACM2IL-1" parent="EQ7L1SsvrP8WP7ACM2IL-0" />
        <mxCell id="6Jnc7gjSLt8j2CblsMqR-35" style="edgeStyle=orthogonalEdgeStyle;rounded=0;jumpStyle=none;orthogonalLoop=1;jettySize=auto;html=1;exitX=0;exitY=0.5;exitDx=0;exitDy=0;endArrow=block;endFill=0;endSize=8;" edge="1" parent="EQ7L1SsvrP8WP7ACM2IL-1" source="6Jnc7gjSLt8j2CblsMqR-0" target="6Jnc7gjSLt8j2CblsMqR-11">
          <mxGeometry relative="1" as="geometry" />
        </mxCell>
        <mxCell id="6Jnc7gjSLt8j2CblsMqR-36" style="edgeStyle=orthogonalEdgeStyle;rounded=0;jumpStyle=none;orthogonalLoop=1;jettySize=auto;html=1;exitX=1;exitY=0.5;exitDx=0;exitDy=0;entryX=0.5;entryY=0;entryDx=0;entryDy=0;endArrow=block;endFill=0;endSize=8;" edge="1" parent="EQ7L1SsvrP8WP7ACM2IL-1" source="6Jnc7gjSLt8j2CblsMqR-0" target="6Jnc7gjSLt8j2CblsMqR-6">
          <mxGeometry relative="1" as="geometry" />
        </mxCell>
        <mxCell id="6Jnc7gjSLt8j2CblsMqR-0" value="Customer Data Form" style="rounded=1;whiteSpace=wrap;html=1;" vertex="1" parent="EQ7L1SsvrP8WP7ACM2IL-1">
          <mxGeometry x="320" y="60" width="120" height="60" as="geometry" />
        </mxCell>
        <mxCell id="6Jnc7gjSLt8j2CblsMqR-18" value="yes" style="edgeStyle=orthogonalEdgeStyle;rounded=0;jumpStyle=none;orthogonalLoop=1;jettySize=auto;html=1;endArrow=block;endFill=0;endSize=8;" edge="1" parent="EQ7L1SsvrP8WP7ACM2IL-1" source="6Jnc7gjSLt8j2CblsMqR-4" target="6Jnc7gjSLt8j2CblsMqR-14">
          <mxGeometry relative="1" as="geometry">
            <Array as="points">
              <mxPoint x="689" y="360" />
            </Array>
          </mxGeometry>
        </mxCell>
        <mxCell id="6Jnc7gjSLt8j2CblsMqR-20" value="no" style="edgeStyle=orthogonalEdgeStyle;rounded=0;jumpStyle=none;orthogonalLoop=1;jettySize=auto;html=1;endArrow=block;endFill=0;endSize=8;exitX=0.5;exitY=1;exitDx=0;exitDy=0;entryX=1;entryY=0.5;entryDx=0;entryDy=0;" edge="1" parent="EQ7L1SsvrP8WP7ACM2IL-1" source="6Jnc7gjSLt8j2CblsMqR-4" target="6Jnc7gjSLt8j2CblsMqR-40">
          <mxGeometry x="-0.768" relative="1" as="geometry">
            <mxPoint x="790" y="260" as="targetPoint" />
            <Array as="points">
              <mxPoint x="620" y="570" />
            </Array>
            <mxPoint as="offset" />
          </mxGeometry>
        </mxCell>
        <mxCell id="6Jnc7gjSLt8j2CblsMqR-4" value="Form Fields pass validation?" style="rhombus;whiteSpace=wrap;html=1;" vertex="1" parent="EQ7L1SsvrP8WP7ACM2IL-1">
          <mxGeometry x="580" y="320" width="80" height="80" as="geometry" />
        </mxCell>
        <mxCell id="6Jnc7gjSLt8j2CblsMqR-17" value="yes" style="edgeStyle=orthogonalEdgeStyle;rounded=0;jumpStyle=none;orthogonalLoop=1;jettySize=auto;html=1;exitX=1;exitY=0.5;exitDx=0;exitDy=0;entryX=0;entryY=0.5;entryDx=0;entryDy=0;endArrow=block;endFill=0;endSize=8;" edge="1" parent="EQ7L1SsvrP8WP7ACM2IL-1" source="6Jnc7gjSLt8j2CblsMqR-5" target="6Jnc7gjSLt8j2CblsMqR-4">
          <mxGeometry relative="1" as="geometry" />
        </mxCell>
        <mxCell id="6Jnc7gjSLt8j2CblsMqR-41" value="no" style="edgeStyle=orthogonalEdgeStyle;rounded=0;jumpStyle=none;orthogonalLoop=1;jettySize=auto;html=1;endArrow=block;endFill=0;endSize=8;exitX=0.5;exitY=1;exitDx=0;exitDy=0;" edge="1" parent="EQ7L1SsvrP8WP7ACM2IL-1" source="6Jnc7gjSLt8j2CblsMqR-5" target="6Jnc7gjSLt8j2CblsMqR-40">
          <mxGeometry relative="1" as="geometry" />
        </mxCell>
        <mxCell id="6Jnc7gjSLt8j2CblsMqR-5" value="Are first- and lastname filled?" style="rhombus;whiteSpace=wrap;html=1;" vertex="1" parent="EQ7L1SsvrP8WP7ACM2IL-1">
          <mxGeometry x="460" y="400" width="80" height="80" as="geometry" />
        </mxCell>
        <mxCell id="6Jnc7gjSLt8j2CblsMqR-13" style="edgeStyle=orthogonalEdgeStyle;rounded=0;jumpStyle=none;orthogonalLoop=1;jettySize=auto;html=1;exitX=0.5;exitY=1;exitDx=0;exitDy=0;entryX=0.5;entryY=0;entryDx=0;entryDy=0;endArrow=block;endFill=0;endSize=8;" edge="1" parent="EQ7L1SsvrP8WP7ACM2IL-1" source="6Jnc7gjSLt8j2CblsMqR-6" target="6Jnc7gjSLt8j2CblsMqR-12">
          <mxGeometry relative="1" as="geometry">
            <Array as="points" />
          </mxGeometry>
        </mxCell>
        <mxCell id="6Jnc7gjSLt8j2CblsMqR-6" value="Search for existing customer" style="whiteSpace=wrap;html=1;" vertex="1" parent="EQ7L1SsvrP8WP7ACM2IL-1">
          <mxGeometry x="440" y="160" width="120" height="60" as="geometry" />
        </mxCell>
        <mxCell id="6Jnc7gjSLt8j2CblsMqR-31" value="yes" style="edgeStyle=orthogonalEdgeStyle;rounded=0;jumpStyle=none;orthogonalLoop=1;jettySize=auto;html=1;endArrow=block;endFill=0;endSize=8;entryX=0;entryY=0;entryDx=0;entryDy=0;" edge="1" parent="EQ7L1SsvrP8WP7ACM2IL-1" source="6Jnc7gjSLt8j2CblsMqR-7" target="6Jnc7gjSLt8j2CblsMqR-28">
          <mxGeometry relative="1" as="geometry" />
        </mxCell>
        <mxCell id="6Jnc7gjSLt8j2CblsMqR-52" value="no" style="edgeStyle=orthogonalEdgeStyle;rounded=0;jumpStyle=none;orthogonalLoop=1;jettySize=auto;html=1;entryX=0;entryY=0.75;entryDx=0;entryDy=0;endArrow=block;endFill=0;endSize=8;" edge="1" parent="EQ7L1SsvrP8WP7ACM2IL-1" source="6Jnc7gjSLt8j2CblsMqR-7" target="6Jnc7gjSLt8j2CblsMqR-48">
          <mxGeometry relative="1" as="geometry">
            <Array as="points">
              <mxPoint x="410" y="1090" />
              <mxPoint x="410" y="775" />
            </Array>
          </mxGeometry>
        </mxCell>
        <mxCell id="6Jnc7gjSLt8j2CblsMqR-7" value="Are all fields for the billing address filled out correctly?" style="rhombus;whiteSpace=wrap;html=1;" vertex="1" parent="EQ7L1SsvrP8WP7ACM2IL-1">
          <mxGeometry x="431.5" y="1030" width="129.23" height="120" as="geometry" />
        </mxCell>
        <mxCell id="6Jnc7gjSLt8j2CblsMqR-24" value="yes" style="edgeStyle=orthogonalEdgeStyle;rounded=0;jumpStyle=none;orthogonalLoop=1;jettySize=auto;html=1;endArrow=block;endFill=0;endSize=8;" edge="1" parent="EQ7L1SsvrP8WP7ACM2IL-1" source="6Jnc7gjSLt8j2CblsMqR-8" target="6Jnc7gjSLt8j2CblsMqR-23">
          <mxGeometry relative="1" as="geometry" />
        </mxCell>
        <mxCell id="6Jnc7gjSLt8j2CblsMqR-25" value="no" style="edgeStyle=orthogonalEdgeStyle;rounded=0;jumpStyle=none;orthogonalLoop=1;jettySize=auto;html=1;endArrow=block;endFill=0;endSize=8;" edge="1" parent="EQ7L1SsvrP8WP7ACM2IL-1" source="6Jnc7gjSLt8j2CblsMqR-8" target="6Jnc7gjSLt8j2CblsMqR-7">
          <mxGeometry relative="1" as="geometry" />
        </mxCell>
        <mxCell id="6Jnc7gjSLt8j2CblsMqR-8" value="Is separate Delivery Address selected?" style="rhombus;whiteSpace=wrap;html=1;" vertex="1" parent="EQ7L1SsvrP8WP7ACM2IL-1">
          <mxGeometry x="446.12" y="870" width="100" height="100" as="geometry" />
        </mxCell>
        <mxCell id="6Jnc7gjSLt8j2CblsMqR-10" value="Go to Summary Page" style="rounded=1;whiteSpace=wrap;html=1;" vertex="1" parent="EQ7L1SsvrP8WP7ACM2IL-1">
          <mxGeometry x="520" y="1320" width="120" height="60" as="geometry" />
        </mxCell>
        <mxCell id="6Jnc7gjSLt8j2CblsMqR-56" style="edgeStyle=orthogonalEdgeStyle;rounded=0;jumpStyle=none;orthogonalLoop=1;jettySize=auto;html=1;exitX=0.5;exitY=1;exitDx=0;exitDy=0;entryX=0;entryY=0.25;entryDx=0;entryDy=0;endArrow=block;endFill=0;endSize=8;" edge="1" parent="EQ7L1SsvrP8WP7ACM2IL-1" source="6Jnc7gjSLt8j2CblsMqR-11" target="6Jnc7gjSLt8j2CblsMqR-48">
          <mxGeometry relative="1" as="geometry" />
        </mxCell>
        <mxCell id="6Jnc7gjSLt8j2CblsMqR-11" value="Checkout as new Customer" style="whiteSpace=wrap;html=1;" vertex="1" parent="EQ7L1SsvrP8WP7ACM2IL-1">
          <mxGeometry x="200" y="160" width="120" height="60" as="geometry" />
        </mxCell>
        <mxCell id="6Jnc7gjSLt8j2CblsMqR-15" value="yes" style="edgeStyle=orthogonalEdgeStyle;rounded=0;jumpStyle=none;orthogonalLoop=1;jettySize=auto;html=1;endArrow=block;endFill=0;endSize=8;" edge="1" parent="EQ7L1SsvrP8WP7ACM2IL-1" source="6Jnc7gjSLt8j2CblsMqR-12" target="6Jnc7gjSLt8j2CblsMqR-4">
          <mxGeometry relative="1" as="geometry" />
        </mxCell>
        <mxCell id="6Jnc7gjSLt8j2CblsMqR-16" value="no" style="edgeStyle=orthogonalEdgeStyle;rounded=0;jumpStyle=none;orthogonalLoop=1;jettySize=auto;html=1;endArrow=block;endFill=0;endSize=8;" edge="1" parent="EQ7L1SsvrP8WP7ACM2IL-1" source="6Jnc7gjSLt8j2CblsMqR-12" target="6Jnc7gjSLt8j2CblsMqR-5">
          <mxGeometry relative="1" as="geometry" />
        </mxCell>
        <mxCell id="6Jnc7gjSLt8j2CblsMqR-12" value="Is Club Card Number filled out?" style="rhombus;whiteSpace=wrap;html=1;" vertex="1" parent="EQ7L1SsvrP8WP7ACM2IL-1">
          <mxGeometry x="460" y="260" width="80" height="80" as="geometry" />
        </mxCell>
        <mxCell id="6Jnc7gjSLt8j2CblsMqR-27" value="" style="edgeStyle=orthogonalEdgeStyle;rounded=0;jumpStyle=none;orthogonalLoop=1;jettySize=auto;html=1;endArrow=block;endFill=0;endSize=8;" edge="1" parent="EQ7L1SsvrP8WP7ACM2IL-1" source="6Jnc7gjSLt8j2CblsMqR-23" target="6Jnc7gjSLt8j2CblsMqR-26">
          <mxGeometry relative="1" as="geometry" />
        </mxCell>
        <mxCell id="6Jnc7gjSLt8j2CblsMqR-23" value="Show and fill out delivery address form (with validation hint)" style="whiteSpace=wrap;html=1;" vertex="1" parent="EQ7L1SsvrP8WP7ACM2IL-1">
          <mxGeometry x="600" y="890" width="120" height="60" as="geometry" />
        </mxCell>
        <mxCell id="6Jnc7gjSLt8j2CblsMqR-33" value="yes" style="edgeStyle=orthogonalEdgeStyle;rounded=0;jumpStyle=none;orthogonalLoop=1;jettySize=auto;html=1;exitX=0.5;exitY=1;exitDx=0;exitDy=0;entryX=1;entryY=0;entryDx=0;entryDy=0;endArrow=block;endFill=0;endSize=8;" edge="1" parent="EQ7L1SsvrP8WP7ACM2IL-1" source="6Jnc7gjSLt8j2CblsMqR-26" target="6Jnc7gjSLt8j2CblsMqR-28">
          <mxGeometry relative="1" as="geometry" />
        </mxCell>
        <mxCell id="6Jnc7gjSLt8j2CblsMqR-46" value="no" style="edgeStyle=orthogonalEdgeStyle;rounded=0;jumpStyle=none;orthogonalLoop=1;jettySize=auto;html=1;exitX=1;exitY=0.5;exitDx=0;exitDy=0;entryX=1;entryY=0.5;entryDx=0;entryDy=0;endArrow=block;endFill=0;endSize=8;" edge="1" parent="EQ7L1SsvrP8WP7ACM2IL-1" source="6Jnc7gjSLt8j2CblsMqR-26" target="6Jnc7gjSLt8j2CblsMqR-23">
          <mxGeometry relative="1" as="geometry" />
        </mxCell>
        <mxCell id="6Jnc7gjSLt8j2CblsMqR-26" value="Are all Fields for the delivery address filled out correctly?" style="rhombus;whiteSpace=wrap;html=1;" vertex="1" parent="EQ7L1SsvrP8WP7ACM2IL-1">
          <mxGeometry x="597.31" y="1030" width="125.38" height="120" as="geometry" />
        </mxCell>
        <mxCell id="6Jnc7gjSLt8j2CblsMqR-29" value="yes" style="edgeStyle=orthogonalEdgeStyle;rounded=0;jumpStyle=none;orthogonalLoop=1;jettySize=auto;html=1;endArrow=block;endFill=0;endSize=8;" edge="1" parent="EQ7L1SsvrP8WP7ACM2IL-1" source="6Jnc7gjSLt8j2CblsMqR-28" target="6Jnc7gjSLt8j2CblsMqR-10">
          <mxGeometry relative="1" as="geometry" />
        </mxCell>
        <mxCell id="6Jnc7gjSLt8j2CblsMqR-55" value="no" style="edgeStyle=orthogonalEdgeStyle;rounded=0;jumpStyle=none;orthogonalLoop=1;jettySize=auto;html=1;exitX=0;exitY=0.5;exitDx=0;exitDy=0;entryX=0;entryY=0.75;entryDx=0;entryDy=0;endArrow=block;endFill=0;endSize=8;" edge="1" parent="EQ7L1SsvrP8WP7ACM2IL-1" source="6Jnc7gjSLt8j2CblsMqR-28" target="6Jnc7gjSLt8j2CblsMqR-48">
          <mxGeometry relative="1" as="geometry">
            <Array as="points">
              <mxPoint x="390" y="1230" />
              <mxPoint x="390" y="775" />
            </Array>
          </mxGeometry>
        </mxCell>
        <mxCell id="6Jnc7gjSLt8j2CblsMqR-28" value="Is the whole Form filled out correctly?" style="rhombus;whiteSpace=wrap;html=1;" vertex="1" parent="EQ7L1SsvrP8WP7ACM2IL-1">
          <mxGeometry x="540" y="1190" width="80" height="80" as="geometry" />
        </mxCell>
        <mxCell id="6Jnc7gjSLt8j2CblsMqR-49" value="" style="edgeStyle=orthogonalEdgeStyle;rounded=0;jumpStyle=none;orthogonalLoop=1;jettySize=auto;html=1;endArrow=block;endFill=0;endSize=8;" edge="1" parent="EQ7L1SsvrP8WP7ACM2IL-1" source="6Jnc7gjSLt8j2CblsMqR-14" target="6Jnc7gjSLt8j2CblsMqR-48">
          <mxGeometry relative="1" as="geometry" />
        </mxCell>
        <mxCell id="6Jnc7gjSLt8j2CblsMqR-14" value="Get Customer Data" style="whiteSpace=wrap;html=1;" vertex="1" parent="EQ7L1SsvrP8WP7ACM2IL-1">
          <mxGeometry x="447.62" y="620" width="97" height="60" as="geometry" />
        </mxCell>
        <mxCell id="6Jnc7gjSLt8j2CblsMqR-42" style="edgeStyle=orthogonalEdgeStyle;rounded=0;jumpStyle=none;orthogonalLoop=1;jettySize=auto;html=1;exitX=0;exitY=0.5;exitDx=0;exitDy=0;entryX=0;entryY=0.5;entryDx=0;entryDy=0;endArrow=block;endFill=0;endSize=8;" edge="1" parent="EQ7L1SsvrP8WP7ACM2IL-1" source="6Jnc7gjSLt8j2CblsMqR-40" target="6Jnc7gjSLt8j2CblsMqR-12">
          <mxGeometry relative="1" as="geometry">
            <Array as="points">
              <mxPoint x="420" y="570" />
              <mxPoint x="420" y="300" />
            </Array>
          </mxGeometry>
        </mxCell>
        <mxCell id="6Jnc7gjSLt8j2CblsMqR-40" value="Add firstname / lastname or club card number ( with validation hint)" style="whiteSpace=wrap;html=1;" vertex="1" parent="EQ7L1SsvrP8WP7ACM2IL-1">
          <mxGeometry x="440" y="540" width="120" height="60" as="geometry" />
        </mxCell>
        <mxCell id="6Jnc7gjSLt8j2CblsMqR-51" value="" style="edgeStyle=orthogonalEdgeStyle;rounded=0;jumpStyle=none;orthogonalLoop=1;jettySize=auto;html=1;endArrow=block;endFill=0;endSize=8;" edge="1" parent="EQ7L1SsvrP8WP7ACM2IL-1" source="6Jnc7gjSLt8j2CblsMqR-48" target="6Jnc7gjSLt8j2CblsMqR-8">
          <mxGeometry relative="1" as="geometry" />
        </mxCell>
        <mxCell id="6Jnc7gjSLt8j2CblsMqR-48" value="Fill billing address form data" style="whiteSpace=wrap;html=1;" vertex="1" parent="EQ7L1SsvrP8WP7ACM2IL-1">
          <mxGeometry x="436.12" y="730" width="120" height="60" as="geometry" />
        </mxCell>
      </root>
    </mxGraphModel>
  </diagram>
  <diagram id="zDP7-P0GXhH1TUjTjWVj" name="Summary">
    <mxGraphModel dx="720" dy="477" grid="1" gridSize="10" guides="1" tooltips="1" connect="1" arrows="1" fold="1" page="1" pageScale="1" pageWidth="827" pageHeight="1169" math="0" shadow="0">
      <root>
        <mxCell id="kGC4bLtBF5b_1Yb7k8IJ-0" />
        <mxCell id="kGC4bLtBF5b_1Yb7k8IJ-1" parent="kGC4bLtBF5b_1Yb7k8IJ-0" />
      </root>
    </mxGraphModel>
  </diagram>
  <diagram id="gMwHEZhM2v5hep1JGxDU" name="Success">
    <mxGraphModel dx="720" dy="477" grid="1" gridSize="10" guides="1" tooltips="1" connect="1" arrows="1" fold="1" page="1" pageScale="1" pageWidth="827" pageHeight="1169" math="0" shadow="0">
      <root>
        <mxCell id="w8eNsi_a_poVVcEDthYe-0" />
        <mxCell id="w8eNsi_a_poVVcEDthYe-1" parent="w8eNsi_a_poVVcEDthYe-0" />
      </root>
    </mxGraphModel>
  </diagram>
</mxfile>
